<?xml version="1.0" encoding="UTF-8"?>
<svg id="Layer_1" xmlns="http://www.w3.org/2000/svg" version="1.1" viewBox="0 0 130 130">
  <!-- Generator: Adobe Illustrator 29.0.1, SVG Export Plug-In . SVG Version: 2.1.0 Build 192)  -->
  <defs>
    <style>
      .st0 {
        fill-rule: evenodd;
      }
    </style>
  </defs>
  <path class="st0" d="M81.1,98.2h-31.1c-.3.7-.6,1.5-1,2.2-3.3,5.7-10.1,7.7-15.1,4.8-2.6-1.5-4.3-4.1-4.9-7h-9.6c-.6,0-1.2-.3-1.6-.8-.4-.5-.6-1.1-.4-1.7l5-25.6h-3c-1.1,0-2.1-.9-2.1-2.1s.9-2.1,2.1-2.1h19.8c1.1,0,2.1.9,2.1,2.1s-.9,2.1-2.1,2.1h-12.6l-4.7,24h7c.2-1.4.8-2.9,1.5-4.3,3.3-5.7,10.1-7.7,15.1-4.8,3.2,1.9,5,5.3,5.1,9.1h22.2l12.2-62.5h-51l-1,5.2h19.6c1.1,0,2.1.9,2.1,2.1s-.9,2.1-2.1,2.1H19.4c-1.1,0-2.1-.9-2.1-2.1s.9-2.1,2.1-2.1h9.5l1.5-7.7c.2-1,1-1.7,2-1.7h55.2c.6,0,1.2.3,1.6.8.4.5.6,1.1.4,1.7l-3.2,16.3h14.1c.7,0,1.3.3,1.7.8l14.6,19.8c.3.5.5,1.1.4,1.6l-5.2,28.1c-.2,1-1,1.7-2.1,1.7h-8c-.3.7-.6,1.5-1,2.2-3.3,5.7-10.1,7.7-15.1,4.8-2.6-1.5-4.3-4.1-4.9-7h0ZM85.7,50.3l-3.1,15.6h28.5l-11.5-15.6h-13.9ZM112.8,70.1h-30.9l-4.7,24h3.9c.2-1.4.7-2.9,1.5-4.3,3.3-5.7,10.1-7.7,15.1-4.8,3.2,1.9,5,5.3,5.1,9.1h5.6l4.4-24ZM85.1,96.3c0,2.2,1.1,4.3,3,5.4,3.2,1.8,7.4.3,9.4-3.3,2.1-3.6,1.3-7.9-1.8-9.8-3.2-1.8-7.3-.3-9.4,3.3-.8,1.3-1.1,2.8-1.2,4.1,0,0,0,.2,0,.3h0ZM33,96.3c0,2.2,1.1,4.3,3,5.4,3.2,1.8,7.3.3,9.4-3.3,2.1-3.6,1.3-7.9-1.8-9.8-3.2-1.8-7.4-.3-9.4,3.3-.8,1.3-1.1,2.8-1.2,4.1,0,0,0,.2,0,.3h0ZM19.4,55.5c-1.1,0-2.1-.9-2.1-2.1s.9-2.1,2.1-2.1h28.1c1.2,0,2.1.9,2.1,2.1s-.9,2.1-2.1,2.1h-28.1Z"/>
</svg>