<?xml version="1.0" encoding="UTF-8"?>
<svg id="Layer_1" xmlns="http://www.w3.org/2000/svg" version="1.1" viewBox="0 0 110 110">
  <!-- Generator: Adobe Illustrator 29.0.0, SVG Export Plug-In . SVG Version: 2.1.0 Build 186)  -->
  <defs>
    <style>
      .st0 {
        fill: #fff;
      }
    </style>
  </defs>
  <path class="st0" d="M94.7,51.7l-3.5-1-9.1-19.7c-1.4-3-4.5-5-7.8-5H20c-4.7,0-8.6,3.9-8.6,8.6v40c0,4.7,3.9,8.6,8.6,8.6h3.7c1.1,3.9,4.7,6.8,9,6.8s7.9-2.9,9-6.8h27.2c1.1,3.9,4.7,6.8,9,6.8s7.9-2.9,9-6.8h3.2c4.7,0,8.6-3.9,8.6-8.6v-17.6c0-2.4-1.6-4.6-3.9-5.3h0ZM77.9,33l7.9,17.3h-18.9v-19.6h7.4c1.5,0,2.9.9,3.6,2.3h0ZM16.1,74.6v-40c0-2.2,1.8-3.9,3.9-3.9h42.3v47.8h-20.5c-1-4.2-4.7-7.3-9.1-7.3s-8.2,3.1-9.1,7.3h-3.6c-2.2,0-3.9-1.8-3.9-3.9h0ZM32.7,85.3c-2.6,0-4.7-2.1-4.7-4.7s2.1-4.7,4.7-4.7,4.7,2.1,4.7,4.7-2.1,4.7-4.7,4.7ZM77.9,85.3c-2.6,0-4.7-2.1-4.7-4.7s2.1-4.7,4.7-4.7,4.7,2.1,4.7,4.7-2.1,4.7-4.7,4.7ZM90,78.5h-3.1c-1-4.2-4.7-7.3-9.1-7.3s-8.2,3.1-9.1,7.3h-1.8v-23.6h22.1l4.3,1.3c.3,0,.6.4.6.8v5.5h-2.6c-1.3,0-2.3,1.1-2.3,2.3s1.1,2.3,2.3,2.3h2.6v7.4c0,2.2-1.8,3.9-3.9,3.9h0Z"/>
</svg>