<?xml version="1.0" encoding="UTF-8"?>
<svg id="Layer_1" data-name="Layer 1" xmlns="http://www.w3.org/2000/svg" version="1.1" viewBox="0 0 110 81.4">
  <defs>
    <style>
      .cls-1 {
        fill: #000;
        stroke-width: 0px;
      }
    </style>
  </defs>
  <path class="cls-1" d="M13.9,14h0c-1.3,0-2.4,1.2-2.4,2.7s1.1,2.7,2.5,2.7h22c1.3,0,2.4-1.2,2.4-2.7s-1.1-2.7-2.4-2.7H13.9ZM86.2,20.6h0c.7,0,1.3.5,1.6,1.2l5.4,13.4h-21.4v-14.6h14.4ZM5.9,32.3h0c-1.3,0-2.4,1.2-2.4,2.7s1.1,2.7,2.5,2.7h25.7c1.4,0,2.5-1.2,2.5-2.7s-1.1-2.7-2.5-2.7H5.9ZM26.9,45h0s34.3,0,34.3,0c1.4,0,2.5,1.2,2.5,2.7s-1.1,2.7-2.5,2.7H26.9c-1.4,0-2.5-1.2-2.5-2.7s1.1-2.7,2.5-2.7h0s0,0,0,0ZM8.1,55.7h0c-1.3,0-2.4,1.2-2.4,2.7s1.1,2.7,2.5,2.7h16.9c1.3,0,2.4-1.2,2.5-2.7,0-1.5-1.1-2.7-2.5-2.7H8.1ZM23,2.9c-3.7,0-6.6,3.3-6.6,7.4h0c0,0,19.5,0,19.5,0h0s0,0,0,0c3.2,0,5.7,2.9,5.7,6.4s-2.6,6.4-5.7,6.4h0s-19.5,0-19.5,0v5.5h15.2c3.2,0,5.7,2.9,5.7,6.4s-2.6,6.4-5.7,6.4h-15.2s0,10.6,0,10.6h8.5c3.2,0,5.7,2.9,5.7,6.4s-2.6,6.4-5.7,6.4h-8.2c.9,3,3.4,5.1,6.3,5.1h6.8c-.2-.9-.3-1.9-.3-2.9,0-7.9,5.7-14.2,12.7-14.3.1,0,.1,0,.1,0,.1,0,.2,0,.4,0,6.9.2,12.4,6.5,12.4,14.3s0,1.9-.3,2.9h0s17.9,0,17.9,0c-.2-.9-.3-1.9-.3-2.9,0-7.9,5.7-14.2,12.8-14.3.1,0,.1,0,.1,0,.1,0,.2,0,.4,0,6.9.2,12.4,6.5,12.4,14.3s0,1.9-.3,2.9h.4c3.7,0,6.7-3.3,6.7-7.4v-19.9c0-4-2.9-7.3-6.5-7.4h0l-6.3-15.7c-1-2.6-3.4-4.4-6.1-4.4h-14.4v-4.9c0-4.1-3-7.3-6.7-7.4H23ZM42.4,54.8h0c-6,0-10.9,5.5-10.9,12.2s.1,1.9.3,2.9h0c.3,1.6.9,3,1.8,4.3h0c2,3.1,5.2,5.1,8.9,5.1s8-2.7,9.8-6.7c.4-.8.7-1.7.9-2.6h0c.2-.9.3-1.9.3-2.9,0-6.6-4.7-12-10.7-12.2-.1,0-.2,0-.3,0h0ZM85.4,54.8c-6,0-10.9,5.5-10.9,12.2s.1,1.9.3,2.9h0c.4,1.8,1.1,3.4,2.1,4.8h0c2,2.8,5.1,4.6,8.6,4.6s7.4-2.3,9.3-5.7h0c.6-1.1,1.1-2.3,1.3-3.6h0c.2-.9.3-1.9.3-2.9,0-6.6-4.7-12-10.7-12.2h-.4Z"/>
</svg>