<?xml version="1.0" encoding="UTF-8"?>
<svg id="Layer_1" xmlns="http://www.w3.org/2000/svg" version="1.1" viewBox="0 0 80 80">
  <!-- Generator: Adobe Illustrator 29.0.0, SVG Export Plug-In . SVG Version: 2.1.0 Build 186)  -->
  <path d="M24,45.4h12.7l-4.6,21.3c-.2,1,.3,2.1,1.2,2.5.3.1.6.2.9.2.7,0,1.3-.3,1.8-.9l22.3-30.3c1-1.3.7-3.3-.6-4.2-.5-.4-1.2-.6-1.8-.6h-12.7l4.6-21.3c.2-1-.3-2.1-1.2-2.5-.9-.4-2.1-.2-2.7.7l-22.3,30.3c-1,1.4-.7,3.3.6,4.2.5.4,1.2.6,1.8.6ZM23.2,41.7l22.3-30.3c0,0,0,0,.1,0,0,0,0,0,0,0,0,0,.1.1.1.2,0,0,0,0,0,0l-4.8,22.5c-.1.5.2,1.1.8,1.2,0,0,.1,0,.2,0h14c.6,0,1,.5,1,1,0,.2,0,.4-.2.6l-22.3,30.3c0,0-.2.1-.2,0,0,0,0,0,0,0,0,0-.1-.1-.1-.2,0,0,0,0,0,0h0l4.8-22.5c.1-.5-.2-1.1-.8-1.2,0,0-.1,0-.2,0h-14c-.6,0-1-.5-1-1,0-.2,0-.4.2-.6Z"/>
</svg>