<?xml version="1.0" encoding="UTF-8"?>
<svg id="Layer_1" data-name="Layer 1" xmlns="http://www.w3.org/2000/svg" version="1.1" viewBox="0 0 100 100">
  <defs>
    <style>
      .cls-1 {
        fill: #000;
        stroke-width: 0px;
      }
    </style>
  </defs>
  <path class="cls-1" d="M75.8,59h-.3c-.9.5-1.7,1-2.3,1.6-.6.6-1.1,1.4-1.5,2.3l-.3.8c-.7,1.9-2.1,3.4-3.7,4.4-1.7,1-3.6,1.3-5.6,1h-.8c-1-.3-1.9-.2-2.8,0-.9.2-1.7.7-2.4,1.3l-.7.5c-1.2.9-2.5,1.6-3.9,1.8l12.9,22.7c.3.6.8,1,1.3,1.3.5.3,1.2.4,1.8.3.6,0,1.2-.3,1.7-.7.5-.4.8-.9,1-1.5l3.2-10.4c.2-.5.7-.8,1.2-.7l10.6,2.4c.6.1,1.3.1,1.8-.1.6-.2,1.1-.6,1.5-1.1.4-.5.6-1.1.6-1.7,0-.6-.1-1.2-.4-1.8l-12.9-22.4h0ZM48.5,72.7c-1.4-.2-2.8-.9-3.9-1.8l-.6-.5c-.8-.6-1.6-1-2.4-1.3-.9-.2-1.8-.3-2.8-.1h-.8c-2,.5-4,0-5.6-.9-1.7-1-3-2.5-3.7-4.4l-.3-.8c-.3-.9-.8-1.7-1.5-2.3-.6-.6-1.4-1.1-2.3-1.5h-.3c0-.1-12.9,22.3-12.9,22.3-.3.6-.5,1.2-.4,1.8,0,.6.2,1.2.6,1.7s.9.9,1.5,1.1c.6.2,1.2.2,1.8.1l10.6-2.4c.5-.1,1,.2,1.2.7l3.2,10.4c.2.6.5,1.1,1,1.5.5.4,1,.6,1.7.7.7,0,1.3,0,1.8-.3.5-.3,1-.7,1.3-1.3l12.9-22.7h0ZM38.5,36c-.4-.4-.4-1,0-1.4.4-.4,1-.4,1.4,0l7.9,7.9,12.3-12.3c.4-.4,1-.4,1.4,0s.4,1,0,1.4l-13,13c-.4.4-1,.4-1.4,0l-8.6-8.6h0ZM50,13.9c6.5,0,12.3,2.6,16.6,6.9,4.2,4.2,6.9,10.1,6.9,16.6s-2.6,12.3-6.9,16.6c-4.3,4.2-10.1,6.8-16.6,6.8s-12.3-2.6-16.6-6.9c-4.2-4.2-6.9-10.1-6.9-16.6s2.6-12.3,6.9-16.6c4.2-4.2,10.1-6.9,16.6-6.9h0ZM65.2,22.2c-3.9-3.9-9.2-6.3-15.2-6.3s-11.3,2.4-15.2,6.3c-3.9,3.9-6.3,9.2-6.3,15.2s2.4,11.3,6.3,15.2c3.9,3.9,9.2,6.3,15.2,6.3s11.2-2.4,15.1-6.3c3.9-3.9,6.3-9.3,6.3-15.2s-2.4-11.3-6.3-15.2h0ZM54.8,6l-.6-.5c-1.2-1-2.7-1.5-4.1-1.5s-2.9.5-4.1,1.5l-.6.5c-1,.8-2.1,1.4-3.2,1.7-1.1.3-2.3.4-3.6.2h-.8c-1.6-.4-3.1,0-4.3.6-1.3.7-2.3,1.9-2.8,3.4l-.3.8c-.4,1.2-1.1,2.2-1.9,3-.8.8-1.9,1.5-3,1.9l-.8.3c-1.5.6-2.6,1.6-3.4,2.8-.7,1.3-1,2.8-.8,4.3v.8c.3,1.2.3,2.5,0,3.6-.3,1.1-.9,2.2-1.7,3.2l-.5.6c-1,1.2-1.5,2.7-1.5,4.1s.5,2.9,1.4,4.1l.6.7c.8,1,1.4,2.1,1.7,3.2.3,1.1.4,2.3.2,3.6v.8c-.4,1.5,0,3,.6,4.3.7,1.3,1.9,2.3,3.4,2.9l.8.3c1.2.4,2.2,1.1,3,1.9.8.8,1.5,1.9,1.9,3l.3.8c.6,1.5,1.6,2.6,2.8,3.4,1.3.7,2.8,1,4.3.8h.8c1.2-.3,2.5-.3,3.6,0,1.1.3,2.2.9,3.2,1.7l.6.5c1.2,1,2.7,1.5,4.1,1.5s2.9-.5,4.1-1.5l.7-.5c1-.8,2.1-1.4,3.2-1.7,1.1-.3,2.3-.4,3.6-.2h.8c1.6.4,3.1,0,4.3-.6,1.3-.7,2.3-1.9,2.8-3.4l.3-.8c.4-1.2,1.1-2.2,1.9-3,.8-.8,1.9-1.5,3-1.9l.8-.3c1.5-.6,2.6-1.6,3.4-2.8.7-1.3,1-2.8.8-4.3v-.8c-.3-1.2-.3-2.5,0-3.6.3-1.1.9-2.2,1.7-3.2l.5-.6c1-1.2,1.5-2.7,1.5-4.1s-.5-2.9-1.4-4.1l-.6-.7c-.8-1-1.4-2.1-1.7-3.2-.3-1.1-.4-2.3-.2-3.6v-.8c.4-1.6,0-3.1-.6-4.3-.7-1.3-1.9-2.3-3.4-2.8l-.8-.3c-1.2-.4-2.2-1.1-3-1.9s-1.5-1.9-1.9-3l-.3-.8c-.6-1.5-1.6-2.6-2.8-3.4-1.3-.7-2.8-1-4.3-.8h-.8c-1.2.3-2.5.3-3.6,0-1.1-.3-2.2-.9-3.2-1.7h0Z"/>
</svg>