<?xml version="1.0" encoding="UTF-8"?>
<svg id="Layer_1" xmlns="http://www.w3.org/2000/svg" version="1.1" viewBox="0 0 32 32">
  <!-- Generator: Adobe Illustrator 29.0.1, SVG Export Plug-In . SVG Version: 2.1.0 Build 192)  -->
  <path d="M23.8,13.6c0-4.3-3.5-7.8-7.8-7.8s-7.8,3.5-7.8,7.8,3.5,7.8,7.8,7.8,7.8-3.5,7.8-7.8ZM16,20.4c-3.7,0-6.8-3-6.8-6.8s3.1-6.8,6.8-6.8,6.8,3.1,6.8,6.8-3,6.8-6.8,6.8ZM25.5,21.7c.3-.1.5-.3.7-.6.5-.7.4-1.6.3-2.5,0-.6-.1-1.2,0-1.6.1-.4.5-.8.9-1.2.6-.6,1.3-1.3,1.3-2.2s-.7-1.6-1.3-2.2c-.4-.4-.8-.8-.9-1.2-.1-.4,0-1,0-1.6.1-.9.2-1.8-.3-2.5-.5-.7-1.4-.9-2.3-1-.6-.1-1.1-.2-1.5-.5-.3-.2-.6-.8-.9-1.2-.4-.8-.9-1.6-1.7-1.9-.8-.3-1.6.1-2.4.5-.5.2-1.1.5-1.5.5s-1-.3-1.5-.5c-.8-.4-1.6-.8-2.4-.5-.8.3-1.3,1.1-1.7,1.9-.3.5-.6,1-.9,1.2-.3.2-.9.3-1.5.5-.9.2-1.8.3-2.3,1-.5.7-.4,1.6-.3,2.5,0,.6.2,1.2,0,1.6-.1.4-.5.8-.9,1.2-.6.6-1.3,1.3-1.3,2.2s.7,1.6,1.3,2.2c.4.4.8.8.9,1.2.1.4,0,1,0,1.6-.1.9-.2,1.8.3,2.5.2.3.4.5.7.6l-2.7,4.7c0,.2,0,.4,0,.5.1.2.3.2.5.2l4-1.1,1.1,4c0,.2.2.3.4.4h0c.2,0,.3,0,.4-.2l2.6-4.4c.5,0,1.1-.3,1.6-.6.5-.2,1.1-.5,1.5-.5s1,.3,1.5.5,1.1.5,1.6.6l2.6,4.4c0,.2.3.2.4.2h0c.2,0,.4-.2.4-.4l1.1-4,4,1.1c.2,0,.4,0,.5-.2s.1-.4,0-.5l-2.7-4.7h0ZM10,28.7l-.9-3.3c0-.3-.4-.4-.6-.4l-3.3.9,2.2-3.9c.2,0,.4,0,.6.1.6.1,1.1.2,1.5.5.3.2.6.8.9,1.2.4.7.8,1.4,1.4,1.8l-1.8,3.1h0ZM16,23.7c-.7,0-1.3.3-1.9.6-.6.3-1.2.6-1.7.5-.5-.1-.8-.8-1.1-1.4-.3-.6-.7-1.2-1.2-1.6-.5-.4-1.2-.5-1.9-.6-.7-.1-1.4-.3-1.7-.6-.3-.4-.2-1.1,0-1.8,0-.7.2-1.4,0-2-.2-.6-.7-1.1-1.1-1.6-.5-.5-1-1-1-1.5s.5-1,1-1.5c.5-.5.9-1,1.1-1.6.2-.6.1-1.3,0-2,0-.7-.2-1.4,0-1.8.3-.4,1-.5,1.7-.6.7-.1,1.4-.3,1.9-.6.5-.4.8-1,1.2-1.6.3-.6.7-1.2,1.1-1.4.4-.1,1.1.2,1.7.5.6.3,1.3.6,1.9.6s1.3-.3,1.9-.6c.6-.3,1.2-.6,1.7-.5.5.2.8.8,1.1,1.4.3.6.7,1.2,1.2,1.6.5.4,1.2.5,1.9.6.7.1,1.4.3,1.7.6.3.4.2,1.1,0,1.8s-.2,1.4,0,2c.2.6.7,1.1,1.1,1.6.5.5,1,1,1,1.5s-.5,1-1,1.5c-.5.5-.9,1-1.1,1.6-.2.6-.1,1.3,0,2s.2,1.4,0,1.8c-.3.4-1,.5-1.7.6-.7.1-1.4.3-1.9.6-.5.4-.8,1-1.2,1.6-.3.6-.7,1.2-1.1,1.4-.4.1-1.1-.2-1.7-.5-.6-.3-1.3-.6-1.9-.6ZM23.5,25c-.3,0-.5,0-.6.4l-.9,3.3-1.8-3.1c.7-.3,1.1-1.1,1.4-1.8.3-.5.5-1,.9-1.2.3-.2.9-.4,1.5-.5.2,0,.4,0,.6-.1l2.2,3.9-3.3-.9h0ZM20.7,11.3l-5.4,5.4c0,0-.2.1-.4.1s-.3,0-.4-.1l-3.2-3.2c-.2-.2-.2-.5,0-.7s.5-.2.7,0l2.9,2.9,5.1-5.1c.2-.2.5-.2.7,0,.2.2.2.5,0,.7h0Z"/>
</svg>