<?xml version="1.0" encoding="utf-8"?>
<!-- Generator: Adobe Illustrator 27.0.0, SVG Export Plug-In . SVG Version: 6.00 Build 0)  -->
<svg version="1.1" xmlns="http://www.w3.org/2000/svg" xmlns:xlink="http://www.w3.org/1999/xlink" x="0px" y="0px" width="36px"
	 height="36px" viewBox="0 0 36 36" style="enable-background:new 0 0 36 36;" xml:space="preserve">
<style type="text/css">
	.st0{fill:none;stroke:#0B0C44;stroke-width:6;stroke-linecap:round;stroke-linejoin:round;stroke-miterlimit:10;}
	.st1{fill:none;stroke:#000000;stroke-linecap:round;stroke-linejoin:round;stroke-miterlimit:10;}
	.st2{fill:none;stroke:#000000;stroke-width:2;stroke-linecap:round;stroke-linejoin:round;stroke-miterlimit:10;}
	.st3{fill:#878787;}
	.st4{fill:none;stroke:#000000;stroke-linecap:round;stroke-linejoin:round;}
	.st5{fill:none;stroke:#FFFFFF;stroke-width:3;stroke-linecap:round;stroke-linejoin:round;}
</style>
<g id="Layer_1">
	<path class="st1" d="M19,6.6l3,6.2c0.2,0.3,0.5,0.5,0.8,0.6l6.8,1c0.9,0.1,1.2,1.2,0.6,1.8L25.3,21c-0.3,0.2-0.4,0.6-0.3,1l1.2,6.8
		c0.2,0.9-0.8,1.6-1.6,1.1l-6.1-3.2c-0.3-0.2-0.7-0.2-1,0l-6.1,3.2c-0.8,0.4-1.7-0.3-1.6-1.1L11,22c0.1-0.4-0.1-0.7-0.3-1l-4.9-4.8
		c-0.6-0.6-0.3-1.7,0.6-1.8l6.8-1c0.4-0.1,0.7-0.3,0.8-0.6l3-6.2C17.4,5.8,18.6,5.8,19,6.6z"/>
	<path d="M18,6c-0.4,0-0.8,0.2-1,0.6l-3,6.2c-0.2,0.3-0.5,0.5-0.8,0.6l-6.8,1c-0.9,0.1-1.2,1.2-0.6,1.8l4.9,4.8
		c0.3,0.2,0.4,0.6,0.3,1l-1.2,6.8c-0.2,0.9,0.8,1.6,1.6,1.1l6.1-3.2c0.2-0.1,0.3-0.1,0.5-0.1V6z"/>
</g>
<g id="Layer_3">
</g>
<g id="Layer_2">
</g>
</svg>
