<?xml version="1.0" encoding="UTF-8"?>
<svg id="Layer_1" data-name="Layer 1" xmlns="http://www.w3.org/2000/svg" version="1.1" viewBox="0 0 110 110">
  <defs>
    <style>
      .cls-1 {
        fill: #000;
        fill-rule: evenodd;
        stroke-width: 0px;
      }
    </style>
  </defs>
  <path class="cls-1" d="M41.3,40.8c-1.8-13.6,1.5-21.6,9.9-24.1-2.1,2.4-3,5.6-2.8,9.7h0c.3,4,3.4,7.1,7.2,7.1h0c3.7,0,6.7-3,6.9-6.9.3-7-1.7-13.5-6.1-19.3,14.2,3.5,20.4,17.5,18.8,42h0c-.2,3,1.9,5.5,4.7,5.7.1,0,.2,0,.4,0h0c3.4,0,6.1-2.9,6.1-6.4s0-.2,0-.3c0-1.5-.3-2.8-.8-3.8,14.9,9.8,13.4,58.3-29.2,58.3S13.7,54.3,28.6,40.5c0,1,0,2,.2,2.9h0c.5,3.5,3.6,6,6.9,5.5.6,0,1.2-.3,1.7-.5h0c2.7-1.3,4.3-4.4,3.9-7.5h0Z"/>
</svg>