<?xml version="1.0" encoding="UTF-8"?>
<svg id="Layer_1" data-name="Layer 1" xmlns="http://www.w3.org/2000/svg" version="1.1" viewBox="0 0 110 110">
  <defs>
    <style>
      .cls-1 {
        fill: #fff;
        stroke-width: 0px;
      }
    </style>
  </defs>
  <path class="cls-1" d="M80,8.1H30c-5.8,0-11.4,2.3-15.5,6.4-4.1,4.1-6.4,9.7-6.4,15.5v50c0,5.8,2.3,11.4,6.4,15.5,4.1,4.1,9.7,6.4,15.5,6.4h50c5.8,0,11.4-2.3,15.5-6.4s6.4-9.7,6.4-15.5V30c0-5.8-2.3-11.4-6.4-15.5s-9.7-6.4-15.5-6.4ZM95.6,80c0,4.1-1.7,8.1-4.6,11s-6.9,4.6-11,4.6H30c-4.1,0-8.1-1.7-11-4.6s-4.6-6.9-4.6-11V30c0-4.1,1.7-8.1,4.6-11s6.9-4.6,11-4.6h50c4.1,0,8.1,1.7,11,4.6s4.6,6.9,4.6,11v50ZM55,33.1c-5.8,0-11.4,2.3-15.5,6.4s-6.4,9.7-6.4,15.5,2.3,11.4,6.4,15.5c4.1,4.1,9.7,6.4,15.5,6.4s11.4-2.3,15.5-6.4,6.4-9.7,6.4-15.5-2.3-11.4-6.4-15.5-9.7-6.4-15.5-6.4h0ZM55,70.6c-4.1,0-8.1-1.6-11-4.6-2.9-2.9-4.6-6.9-4.6-11s1.6-8.1,4.6-11c2.9-2.9,6.9-4.6,11-4.6s8.1,1.6,11,4.6c2.9,2.9,4.6,6.9,4.6,11s-1.7,8.1-4.6,11-6.9,4.6-11,4.6h0ZM87,28.4c0,2.2-1.3,4.2-3.4,5.1-2,.8-4.4.4-6-1.2s-2-3.9-1.2-6c.8-2,2.8-3.4,5.1-3.4s5.5,2.4,5.5,5.5h0Z"/>
</svg>