<?xml version="1.0" encoding="UTF-8"?><svg id="Layer_1" xmlns="http://www.w3.org/2000/svg" width="24" height="24" viewBox="0 0 24 24"><defs><style>.cls-1{fill:none;stroke:#000;stroke-linecap:round;stroke-linejoin:round;}</style></defs><path class="cls-1" d="M21.89,7.49c-.55-3.16-3.31-5.07-6.58-4.54-1.33,.22-2.45,.89-3.34,2-1.14-1.41-2.61-2.08-4.46-2.06-1.71,.02-3.1,.68-4.27,2.02-1.31,1.5-1.32,3.31-1.19,4.72,.1,1.05,.49,2.07,1.2,3.13,.74,1.11,8.12,8.16,8.17,8.19,.15,.12,.34,.18,.52,.18,.25,0,.39-.07,.58-.25,.69-.64,2.9-2.88,4.76-4.7,1.24-1.21,2.35-2.23,2.77-2.68,1.59-1.72,2.23-3.8,1.84-6.01Z"/></svg>