<?xml version="1.0" encoding="UTF-8"?>
<svg id="Layer_1" xmlns="http://www.w3.org/2000/svg" version="1.1" viewBox="0 0 115 115">
  <!-- Generator: Adobe Illustrator 29.0.0, SVG Export Plug-In . SVG Version: 2.1.0 Build 186)  -->
  <path d="M53.1,42.1c2.9,0,2.9-4.4,0-4.4h-9.8c-1.7,0-3.2,1-4,2.5-.3.6-3.7,8.1-3.8,8.6-.1.5-.2.9-.2,1.4v27.3c0,2.5,2,4.4,4.5,4.4h35.6c2.5,0,4.5-2,4.5-4.4v-27.3c0-.5,0-.9-.2-1.3-.2-.7-3.5-7.9-3.9-8.8-.8-1.4-2.3-2.3-3.9-2.3h-9.8c-2.9,0-2.9,4.4,0,4.4h9.9s2.2,5,2.2,5h-33.1l2.3-5h9.8ZM39.7,77.4v-25.9h15.6v5.1c0,2.9,4.4,2.9,4.4,0v-5.1h15.6v25.9h-35.7Z"/>
  <path d="M92.7,68.1c-1.2-.4-2.4.3-2.8,1.5-10.3,33-57.6,31.3-65.5-2.3l.7.7c2.1,2.1,5.2-.9,3.2-3.1l-5.4-5.7c-.9-.9-2.3-.8-3.2,0l-5.4,5.7c-2,2.2,1.2,5.1,3.2,3.1l2-2.2c2.8,18.3,19.3,32.3,37.9,32.2,16.8,0,31.9-11.2,36.7-27.2.4-1.2-.3-2.4-1.5-2.8h0Z"/>
  <path d="M100.6,53.5c-.9-.8-2.3-.8-3.1,0l-1.8,1.9C90.3,13,30.8,9.3,20.2,50.7c-.6,2.9,3.6,3.9,4.3,1,8.9-36,60.9-33.4,66.4,3.1l-1.2-1.2c-2.1-2.1-5.2.9-3.2,3.1l5.4,5.7c.8.9,2.4.9,3.2,0l5.4-5.7c.8-.9.8-2.3,0-3.1h0Z"/>
</svg>