<?xml version="1.0" encoding="UTF-8"?>
<svg id="Layer_1" xmlns="http://www.w3.org/2000/svg" version="1.1" viewBox="0 0 100 100">
  <!-- Generator: Adobe Illustrator 29.0.0, SVG Export Plug-In . SVG Version: 2.1.0 Build 186)  -->
  <defs>
    <style>
      .st0 {
        fill-rule: evenodd;
      }
    </style>
  </defs>
  <path class="st0" d="M8.8,15.8c0-.6.5-1,1-1h80.9c.6,0,1,.5,1,1v55.8c0,.6-.5,1-1,1h-28.7c-1.5,0-2.8.8-3.6,2l-7.1,11.5c-.4.6-1.3.7-1.7,0l-7.4-11.5c-.8-1.2-2.1-2-3.6-2H9.9c-.6,0-1-.5-1-1V15.8h0ZM9.9,11.6c-2.4,0-4.3,1.9-4.3,4.3v55.8c0,2.4,1.9,4.3,4.3,4.3h28.7c.3,0,.7.2.9.5l7.4,11.5c1.7,2.6,5.6,2.6,7.2,0l7.1-11.4c.2-.3.5-.5.9-.5h28.8c2.4,0,4.3-1.9,4.3-4.3V15.8c0-2.4-1.9-4.3-4.3-4.3H9.9ZM64.7,27.2c-.9,0-1.6.7-1.6,1.6s.7,1.6,1.6,1.6h15.9c.9,0,1.6-.7,1.6-1.6s-.7-1.6-1.6-1.6h-15.9ZM36.1,27.8c-.4-.7-1.4-.7-1.8,0l-4.1,8.4c-.1.3-.4.5-.7.5l-9.3,1.3c-.8,0-1.1,1.1-.5,1.7l6.7,6.5c.2.2.3.5.3.9l-1.6,9.2c-.1.8.7,1.4,1.4,1l8.3-4.4c.3,0,.6,0,.9,0l8.3,4.4c.7.4,1.6-.2,1.4-1l-1.6-9.2c0-.3,0-.6.3-.9l6.7-6.5c.6-.6.3-1.6-.5-1.7l-9.3-1.3c-.3,0-.6-.2-.7-.5l-4.2-8.4ZM63.1,39.2c0-.9.7-1.6,1.6-1.6h15.9c.9,0,1.6.7,1.6,1.6s-.7,1.6-1.6,1.6h-15.9c-.9.1-1.6-.7-1.6-1.6ZM64.7,48.1c-.9,0-1.6.7-1.6,1.6s.7,1.6,1.6,1.6h15.9c.9,0,1.6-.7,1.6-1.6s-.7-1.6-1.6-1.6h-15.9ZM63.1,60.1c0-.9.7-1.6,1.6-1.6h15.9c.9,0,1.6.7,1.6,1.6s-.7,1.6-1.6,1.6h-15.9c-.9,0-1.6-.7-1.6-1.6Z"/>
</svg>