<?xml version="1.0" encoding="UTF-8"?>
<svg id="Layer_1" xmlns="http://www.w3.org/2000/svg" version="1.1" viewBox="0 0 120 120">
  <!-- Generator: Adobe Illustrator 29.0.0, SVG Export Plug-In . SVG Version: 2.1.0 Build 186)  -->
  <defs>
    <style>
      .st0 {
        fill: #fff;
      }
    </style>
  </defs>
  <path class="st0" d="M102.8,99.4l-20.5-20.5h0c8.4-10,11.1-23.6,7-36-4.1-12.4-14.3-21.8-27-24.8-12.7-3-26.1.8-35.3,10s-13,22.6-10,35.3,12.4,22.9,24.8,27c12.4,4.1,26,1.4,36-7l20.5,20.5h0c1.2,1.2,3.2,1.2,4.4,0,1.2-1.2,1.2-3.2,0-4.4h0ZM22.5,54.8c0-8.3,3.3-16.2,9.2-22.1,5.9-5.9,13.8-9.2,22.1-9.2s16.2,3.3,22.1,9.2,9.2,13.8,9.2,22.1-3.3,16.2-9.2,22.1-13.8,9.2-22.1,9.2-16.2-3.3-22.1-9.2c-5.9-5.9-9.2-13.8-9.2-22.1h0Z"/>
</svg>