<?xml version="1.0" encoding="UTF-8"?>
<svg id="Layer_1" xmlns="http://www.w3.org/2000/svg" version="1.1" viewBox="0 0 120 120">
  <!-- Generator: Adobe Illustrator 29.0.0, SVG Export Plug-In . SVG Version: 2.1.0 Build 186)  -->
  <defs>
    <style>
      .st0 {
        fill: #fff;
      }
    </style>
  </defs>
  <path class="st0" d="M31.7,27.5h74.2c1.7,0,3,1.3,3,3s0,.6,0,.9l-9.7,39.3c-.3,1.4-1.6,2.3-2.9,2.3h-55.2l-3,6.2h59.1c1.7,0,3,1.3,3,3s-1.3,3-3,3h-8c.6,1.3.9,2.6.9,4.1,0,2.8-1.1,5.3-3,7.1s-4.4,3-7.1,3-5.3-1.1-7.1-3c-1.8-1.8-3-4.4-3-7.1s.3-2.9.9-4.1h-11c.6,1.3.9,2.6.9,4.1,0,2.8-1.1,5.3-3,7.1s-4.4,3-7.1,3-5.3-1.1-7.1-3c-1.8-1.8-3-4.4-3-7.1s.3-2.9.9-4.1h-8c-.4,0-.9,0-1.3-.3-1.5-.7-2.1-2.5-1.4-4l5.4-11.2-9.5-38.5-2.1-8.5h-10.3c-1.7,0-3-1.3-3-3s1.3-3,3-3h12.6c1.3,0,2.6.9,2.9,2.3l2.1,8.5h0ZM79.9,85.1h0c-1.1,0-2.1.5-2.9,1.2-.7.7-1.2,1.8-1.2,2.9s.5,2.2,1.2,2.9c.7.7,1.8,1.2,2.9,1.2s2.2-.5,2.9-1.2c.7-.7,1.2-1.8,1.2-2.9s-.5-2.2-1.2-2.9c-.7-.7-1.7-1.2-2.9-1.2h0ZM50.4,85.1h0c-1.1,0-2.1.5-2.9,1.2-.7.7-1.2,1.8-1.2,2.9s.5,2.2,1.2,2.9c.7.7,1.8,1.2,2.9,1.2s2.2-.5,2.9-1.2,1.2-1.8,1.2-2.9-.4-2.1-1.1-2.8h0c-.7-.8-1.7-1.3-2.9-1.3h0ZM102.1,33.5H33.2l8.2,33.5h52.4l8.2-33.5h0Z"/>
</svg>