<?xml version="1.0" encoding="UTF-8"?>
<svg id="Layer_1" data-name="Layer 1" xmlns="http://www.w3.org/2000/svg" version="1.1" viewBox="0 0 36 36">
  <defs>
    <style>
      .cls-1 {
        fill: none;
        stroke: gold;
        stroke-linecap: round;
        stroke-linejoin: round;
      }
    </style>
  </defs>
  <g id="Layer_1-2" data-name="Layer 1">
    <path class="cls-1" d="M19,6.6l3,6.2c.2.3.5.5.8.6l6.8,1c.9.1,1.2,1.2.6,1.8l-4.9,4.8c-.3.2-.4.6-.3,1l1.2,6.8c.2.9-.8,1.6-1.6,1.1l-6.1-3.2c-.3-.2-.7-.2-1,0l-6.1,3.2c-.8.4-1.7-.3-1.6-1.1l1.2-6.8c.1-.4-.1-.7-.3-1l-4.9-4.8c-.6-.6-.3-1.7.6-1.8l6.8-1c.4-.1.7-.3.8-.6l3-6.2c.4-.8,1.6-.8,2,0Z"/>
  </g>
</svg>