<?xml version="1.0" encoding="UTF-8"?>
<svg id="Layer_1" data-name="Layer 1" xmlns="http://www.w3.org/2000/svg" version="1.1" viewBox="0 0 64 64">
  <defs>
    <style>
      .cls-1 {
        fill: #fff;
        stroke-width: 0px;
      }
    </style>
  </defs>
  <path class="cls-1" d="M52.3,11.4c-.3-.2-.6-.2-.9-.1-2.5,1.1-5.1.3-6.6-1.7-.7-.9-1.1-2.1-1.1-3.2s0-.5-.3-.7-.4-.3-.7-.3h-10.2c-.6,0-1,.4-1,1v35.7c-.2,1.8-1.6,3.1-3.4,3.1s-3.5-1.6-3.5-3.5,1.3-3.2,3.1-3.4c.5,0,.9-.5.9-1v-11.6c0-.6-.4-1-1-1h-.2c-9.2.4-16.3,7.8-16.3,17s7.6,17,17,17,16.2-6.8,16.9-15.5v-19.7c2.2.5,4.5.7,6.9.3.5-.1.8-.5.8-1v-10.6c0-.3-.2-.6-.5-.8h0ZM50.8,22c-2.3.2-4.4,0-6.5-.7-.3-.1-.6,0-.9.1-.3.2-.4.5-.4.8v20.5c-.5,7.8-7.1,14-14.9,14s-15-6.7-15-15,5.8-14.2,13.5-14.9v9.7c-2.3.7-4,2.8-4,5.2s2.5,5.5,5.5,5.5,5-2,5.4-4.6V7.4h8.3c.2,1.3.7,2.4,1.4,3.4,1.7,2.3,4.7,3.5,7.6,2.8,0,0,0,8.4,0,8.4Z"/>
</svg>